<svg width="360" height="185" xmlns="http://www.w3.org/2000/svg">
 <!-- Created with the Wikimedia parliament diagram creator (http://tools.wmflabs.org/parliamentdiagram/parliamentinputform.html) -->

 <g>
  <title>background</title>
  <rect fill="none" id="canvas_background" height="187" width="362" y="-1" x="-1"/>
 </g>
 <g>
  <title>Layer 1</title>
  <g id="svg_1">
   <g fill="#999999" id="Party1">
    <circle id="svg_3" r="6.67" cy="173.34" cx="13.47" fill="#999999"/>
   </g>
   <g fill="#A73F24" id="Party2">
    <circle id="svg_4" r="6.67" cy="173.34" cx="30.15"/>
   </g>
   <g fill="#F0F0F0" id="Party5">
    <circle stroke="#1b9431" id="svg_69" r="6.67" cy="21.08" cx="230.23" fill="none"/>
   </g>
   <g fill="#28C8C8" id="Party6">
    <circle id="svg_70" r="6.67" cy="39.8" cx="233.32"/>
    <circle id="svg_71" r="6.67" cy="71.59" cx="223.1"/>
    <circle id="svg_72" r="6.67" cy="57.2" cx="231.95"/>
    <circle fill="#000095" id="svg_73" r="6.67" cy="103.46" cx="212.96"/>
    <circle id="svg_74" r="6.67" cy="28.41" cx="249.27"/>
   </g>
   <g fill="#000095" id="Party7">
    <circle fill="#28c8c8" id="svg_75" r="6.67" cy="89.09" cx="221.67"/>
    <circle id="svg_76" r="6.67" cy="49" cx="253.07"/>
    <circle id="svg_77" r="6.67" cy="38.01" cx="267.27"/>
    <circle id="svg_78" r="6.67" cy="67.05" cx="250.86"/>
    <circle id="svg_79" r="6.67" cy="81.63" cx="242.72"/>
    <circle id="svg_80" r="6.67" cy="100.07" cx="240.09"/>
    <circle id="svg_81" r="6.67" cy="60.97" cx="271.27"/>
    <circle id="svg_82" r="6.67" cy="49.73" cx="283.96"/>
    <circle id="svg_83" r="6.67" cy="115.08" cx="232.25"/>
    <circle id="svg_84" r="6.67" cy="79.79" cx="267.96"/>
    <circle id="svg_85" r="6.67" cy="95.18" cx="260.11"/>
    <circle id="svg_86" r="6.67" cy="63.41" cx="299.1"/>
    <circle id="svg_87" r="6.67" cy="75.44" cx="287.55"/>
    <circle id="svg_88" r="6.67" cy="114.72" cx="255.75"/>
    <circle id="svg_89" r="6.67" cy="95.1" cx="282.81"/>
    <circle id="svg_90" r="6.67" cy="78.83" cx="312.45"/>
    <circle id="svg_91" r="6.67" cy="92.13" cx="301.57"/>
    <circle id="svg_92" r="6.67" cy="111.76" cx="274.63"/>
    <circle id="svg_93" r="6.67" cy="131.44" cx="247.72"/>
    <circle id="svg_94" r="6.67" cy="112.57" cx="295.02"/>
    <circle id="svg_95" r="6.67" cy="95.77" cx="323.81"/>
    <circle id="svg_96" r="6.67" cy="132.38" cx="267.93"/>
    <circle id="svg_97" r="6.67" cy="110.66" cx="313.01"/>
    <circle id="svg_98" r="6.67" cy="130.78" cx="285.78"/>
    <circle id="svg_99" r="6.67" cy="113.97" cx="333.03"/>
    <circle id="svg_100" r="6.67" cy="131.77" cx="304.3"/>
    <circle id="svg_101" r="6.67" cy="151.35" cx="258.25"/>
    <circle id="svg_102" r="6.67" cy="130.66" cx="321.65"/>
    <circle id="svg_103" r="6.67" cy="133.15" cx="339.95"/>
    <circle id="svg_104" r="6.67" cy="152.22" cx="276.06"/>
    <circle id="svg_105" r="6.67" cy="151.55" cx="293.15"/>
    <circle id="svg_106" r="6.67" cy="152.2" cx="310.4"/>
    <circle id="svg_107" r="6.67" cy="151.7" cx="327.31"/>
    <circle id="svg_108" r="6.67" cy="153.04" cx="344.47"/>
    <circle id="svg_109" r="6.67" cy="173.35" cx="263.07"/>
    <circle id="svg_110" r="6.67" cy="173.34" cx="279.78"/>
    <circle id="svg_111" r="6.67" cy="173.34" cx="296.48"/>
    <circle id="svg_112" r="6.67" cy="173.34" cx="313.17"/>
    <circle fill="#1b9431" id="svg_115" r="6.669983" cy="173.35" cx="179.999993"/>
   </g>
   <g fill="#F0F0F0" id="Party8">
    <circle stroke="#000095" id="svg_113" r="6.67" cy="173.34" cx="329.85" fill="none"/>
    <circle stroke="#000095" id="svg_114" r="6.67" cy="173.34" cx="346.53" fill="none"/>
   </g>
   <circle fill="#1b9431" id="svg_5" r="6.67" cy="173.34" cx="46.83"/>
   <circle fill="#1b9431" id="svg_6" r="6.67" cy="173.34" cx="63.52"/>
   <circle fill="#1b9431" id="svg_7" r="6.67" cy="173.34" cx="80.22"/>
   <circle fill="#1b9431" id="svg_8" r="6.67" cy="173.35" cx="96.93"/>
   <circle fill="#1b9431" id="svg_9" r="6.67" cy="153.04" cx="15.53"/>
   <circle fill="#1b9431" id="svg_10" r="6.67" cy="151.7" cx="32.69"/>
   <circle fill="#1b9431" id="svg_11" r="6.67" cy="152.2" cx="49.6"/>
   <circle fill="#1b9431" id="svg_12" r="6.67" cy="151.55" cx="66.85"/>
   <circle fill="#1b9431" id="svg_13" r="6.67" cy="152.22" cx="83.94"/>
   <circle fill="#1b9431" id="svg_14" r="6.67" cy="133.15" cx="20.05"/>
   <circle fill="#1b9431" id="svg_15" r="6.67" cy="130.66" cx="38.35"/>
   <circle fill="#1b9431" id="svg_16" r="6.67" cy="151.35" cx="101.75"/>
   <circle fill="#1b9431" id="svg_17" r="6.67" cy="131.77" cx="55.7"/>
   <circle fill="#1b9431" id="svg_18" r="6.67" cy="113.97" cx="26.97"/>
   <circle fill="#1b9431" id="svg_19" r="6.67" cy="130.78" cx="74.22"/>
   <circle fill="#1b9431" id="svg_20" r="6.67" cy="110.66" cx="46.99"/>
   <circle fill="#1b9431" id="svg_21" r="6.67" cy="132.38" cx="92.07"/>
   <circle fill="#1b9431" id="svg_22" r="6.67" cy="95.77" cx="36.19"/>
   <circle fill="#1b9431" id="svg_23" r="6.67" cy="112.57" cx="64.98"/>
   <circle fill="#1b9431" id="svg_24" r="6.67" cy="131.44" cx="112.28"/>
   <circle fill="#1b9431" id="svg_25" r="6.67" cy="111.76" cx="85.37"/>
   <circle fill="#1b9431" id="svg_26" r="6.67" cy="92.13" cx="58.43"/>
   <circle fill="#1b9431" id="svg_27" r="6.67" cy="78.83" cx="47.55"/>
   <circle fill="#1b9431" id="svg_28" r="6.67" cy="95.1" cx="77.19"/>
   <circle fill="#1b9431" id="svg_29" r="6.67" cy="114.72" cx="104.25"/>
   <circle fill="#1b9431" id="svg_30" r="6.67" cy="75.44" cx="72.45"/>
   <circle fill="#1b9431" id="svg_31" r="6.67" cy="63.41" cx="60.9"/>
   <circle fill="#1b9431" id="svg_32" r="6.67" cy="95.18" cx="99.89"/>
   <circle fill="#1b9431" id="svg_33" r="6.67" cy="79.79" cx="92.04"/>
   <circle fill="#1b9431" id="svg_34" r="6.67" cy="115.08" cx="127.75"/>
   <circle fill="#1b9431" id="svg_35" r="6.67" cy="49.73" cx="76.04"/>
   <circle fill="#1b9431" id="svg_36" r="6.67" cy="60.97" cx="88.73"/>
   <circle fill="#1b9431" id="svg_37" r="6.67" cy="100.07" cx="119.91"/>
   <circle fill="#1b9431" id="svg_38" r="6.67" cy="81.63" cx="117.28"/>
   <circle fill="#1b9431" id="svg_39" r="6.67" cy="67.05" cx="109.14"/>
   <circle fill="#1b9431" id="svg_40" r="6.67" cy="38.01" cx="92.73"/>
   <circle fill="#1b9431" id="svg_41" r="6.67" cy="49" cx="106.93"/>
   <circle fill="#1b9431" id="svg_42" r="6.67" cy="89.09" cx="138.33"/>
   <circle fill="#1b9431" id="svg_43" r="6.67" cy="28.41" cx="110.73"/>
   <circle fill="#1b9431" id="svg_44" r="6.67" cy="103.46" cx="147.04"/>
   <circle fill="#1b9431" id="svg_45" r="6.67" cy="57.2" cx="128.05"/>
   <circle fill="#1b9431" id="svg_46" r="6.67" cy="71.59" cx="136.9"/>
   <circle fill="#1b9431" id="svg_47" r="6.67" cy="39.8" cx="126.68"/>
   <circle fill="#1b9431" id="svg_48" r="6.67" cy="21.08" cx="129.77"/>
   <circle fill="#1b9431" id="svg_49" r="6.67" cy="50.49" cx="148.29"/>
   <circle fill="#1b9431" id="svg_50" r="6.67" cy="33.55" cx="147.55"/>
   <circle fill="#1b9431" id="svg_51" r="6.67" cy="82.3" cx="158.68"/>
   <circle fill="#1b9431" id="svg_52" r="6.67" cy="65.42" cx="158.06"/>
   <circle fill="#1b9431" id="svg_53" r="6.67" cy="16.14" cx="149.56"/>
   <circle fill="#1b9431" id="svg_54" r="6.67" cy="97.43" cx="168.74"/>
   <circle fill="#1b9431" id="svg_55" r="6.67" cy="47.09" cx="169.34"/>
   <circle fill="#1b9431" id="svg_56" r="6.67" cy="30.4" cx="169.11"/>
   <circle fill="#1b9431" id="svg_57" r="6.67" cy="13.65" cx="169.8"/>
   <circle fill="#1b9431" id="svg_58" r="6.67" cy="63.33" cx="180"/>
   <circle fill="#1b9431" id="svg_59" r="6.67" cy="80" cx="180"/>
   <circle fill="#1b9431" id="svg_60" r="6.67" cy="13.65" cx="190.2"/>
   <circle fill="#1b9431" id="svg_61" r="6.67" cy="30.4" cx="190.89"/>
   <circle fill="#1b9431" id="svg_62" r="6.67" cy="47.09" cx="190.66"/>
   <circle fill="#1b9431" id="svg_64" r="6.67" cy="16.14" cx="210.44"/>
   <circle fill="#1b9431" id="svg_67" r="6.67" cy="33.55" cx="212.45"/>
   <circle fill="#1b9431" id="svg_68" r="6.67" cy="50.49" cx="211.71"/>
   <g id="svg_117">
    <circle fill="#fbbe01" id="svg_63" r="6.67" cy="97.43" cx="191.26"/>
    <circle fill="#fbbe01" id="svg_65" r="6.67" cy="65.42" cx="201.94"/>
    <circle fill="#fbbe01" id="svg_66" r="6.67" cy="82.3" cx="201.32"/>
   </g>
  </g>
 </g>
</svg>